<?xml version="1.0" encoding="UTF-8" standalone="no"?>
<svg
   viewBox="0 0 24 24"
   fill="none"
   stroke="#F6EFE2"
   stroke-width="1.8"
   version="1.1"
   id="svg1"
   sodipodi:docname="langue.svg"
   xml:space="preserve"
   inkscape:version="1.4.4 (dcaf3e7d9e, 2026-05-05)"
   xmlns:inkscape="http://www.inkscape.org/namespaces/inkscape"
   xmlns:sodipodi="http://sodipodi.sourceforge.net/DTD/sodipodi-0.dtd"
   xmlns="http://www.w3.org/2000/svg"
   xmlns:svg="http://www.w3.org/2000/svg"><defs
     id="defs1" /><sodipodi:namedview
     id="namedview1"
     pagecolor="#ffffff"
     bordercolor="#000000"
     borderopacity="0.25"
     inkscape:showpageshadow="2"
     inkscape:pageopacity="0.0"
     inkscape:pagecheckerboard="0"
     inkscape:deskcolor="#d1d1d1"
     inkscape:zoom="22.229081"
     inkscape:cx="17.634557"
     inkscape:cy="9.3796049"
     inkscape:window-width="1920"
     inkscape:window-height="1024"
     inkscape:window-x="0"
     inkscape:window-y="32"
     inkscape:window-maximized="1"
     inkscape:current-layer="layer1" /><g
     inkscape:groupmode="layer"
     id="layer1"
     inkscape:label="Layer 1"><path
       style="font-size:18.7865px;line-height:0.9;font-family:ErnestFont;-inkscape-font-specification:ErnestFont;letter-spacing:-0.387471px;fill:#f6efe2;stroke:none;stroke-width:0.532529;stroke-linejoin:round"
       d="m 1.8611565,7.3033738 c 0,2.5925371 2.1040881,4.6966252 4.6966252,4.6966252 2.5925371,0 4.6966253,-2.1040881 4.6966253,-4.6966252 0,-2.5925371 -2.1040882,-4.6966252 -4.6966253,-4.6966252 -2.5925371,0 -4.6966252,2.1040881 -4.6966252,4.6966252 z m 1.8786501,0 c 0,-1.5592796 1.2586955,-2.8179751 2.8179751,-2.8179751 1.5592796,0 2.8179751,1.2586955 2.8179751,2.8179751 0,1.5592796 -1.2586955,2.8179752 -2.8179751,2.8179752 -1.5592796,0 -2.8179751,-1.2586956 -2.8179751,-2.8179752 z M 1.8611565,12.939324 v 8.453926 h 1.8786501 v -6.575276 h 7.5146004 v -1.87865 z M 12.745593,8.3178449 v 2.6488961 l 4.696625,-4.6966247 4.696626,4.6966247 V 8.3178449 L 17.442218,3.6212196 Z m 0,8.3787791 c 0,2.592537 2.104088,4.696626 4.696625,4.696626 2.592537,0 4.696626,-2.104089 4.696626,-4.696626 0,-2.592537 -2.104089,-4.696625 -4.696626,-4.696625 -2.592537,0 -4.696625,2.104088 -4.696625,4.696625 z m 1.87865,0 c 0,-1.559279 1.258696,-2.817975 2.817975,-2.817975 1.55928,0 2.817975,1.258696 2.817975,2.817975 0,1.55928 -1.258695,2.817975 -2.817975,2.817975 -1.559279,0 -2.817975,-1.258695 -2.817975,-2.817975 z"
       id="text3"
       aria-label="pô" /></g></svg>
